<svg width="71" height="46" viewBox="0 0 71 46" fill="none" xmlns="http://www.w3.org/2000/svg">
<path d="M65.8548 31.8459H3.47627C1.55638 31.8459 0 33.3909 0 35.2966V42.5493C0 44.4551 1.55638 46 3.47627 46H65.8548C67.7747 46 69.3311 44.4551 69.3311 42.5493V35.2966C69.3311 33.3909 67.7747 31.8459 65.8548 31.8459Z" fill="black"/>
<path d="M4.20557 0.0158691H23.3384L22.8912 4.20369H8.40584L7.54609 12.3706H13.5351L13.0959 16.5584H7.10424L5.76004 29.328H1.11792L4.20557 0.0158691Z" fill="white"/>
<path d="M18.0149 6.29883H22.6543L20.7139 25.1427H28.3505L27.9086 29.3279H15.6326L18.0149 6.29883Z" fill="white"/>
<path d="M30.6557 0.0158691H36.9428L38.6649 29.3438H34.0255L33.8046 23.5152V23.5998H28.5103L28.119 24.2762H23.8149L30.6557 0.0158691ZM33.6555 19.6154L33.1231 5.12581H33.0406L29.4792 19.6154H33.6555Z" fill="white"/>
<path d="M56.7408 0.0158691H61.3829L60.1265 11.9531H65.104L66.3604 0.0158691H70.9999L67.9149 29.328H63.2727L64.6622 16.1383H59.6847L58.2926 29.328H53.6558L56.7408 0.0158691Z" fill="white"/>
<path d="M48.5081 0H54.1643L49.5462 11.282H54.2415L42.5031 29.3544L47.124 15.6759L42.197 15.6363L48.5081 0Z" fill="black"/>
<path d="M12.2975 43.1571C11.9355 42.7608 11.7651 42.1901 11.7651 41.4476V40.9192H13.1386V41.5507C13.1386 42.146 13.3897 42.4428 13.8919 42.4411C13.9954 42.4483 14.0993 42.4327 14.1959 42.3952C14.2926 42.3577 14.3797 42.2994 14.4509 42.2244C14.596 42.0208 14.6639 41.7728 14.6425 41.5242C14.6492 41.1674 14.5572 40.8155 14.3763 40.507C14.1064 40.1077 13.777 39.7514 13.3995 39.4501C12.9056 39.047 12.4821 38.5658 12.1458 38.026C11.903 37.5868 11.78 37.0922 11.7891 36.5913C11.7485 35.9805 11.9468 35.3776 12.3427 34.9083C12.5513 34.7024 12.8015 34.5427 13.0768 34.4398C13.3521 34.3368 13.6462 34.293 13.9398 34.3111C14.2309 34.2901 14.5231 34.3327 14.7958 34.4358C15.0685 34.539 15.3151 34.7003 15.5182 34.9083C15.8731 35.3046 16.0506 35.8744 16.0506 36.6177V36.9982H14.6878V36.5253C14.7083 36.2821 14.6434 36.0394 14.5041 35.8383C14.4371 35.7653 14.3546 35.7079 14.2625 35.6704C14.1704 35.633 14.0711 35.6163 13.9717 35.6217C13.4873 35.6217 13.2451 35.9141 13.2451 36.4989C13.2426 36.8285 13.335 37.1521 13.5113 37.4315C13.7884 37.8276 14.1199 38.1833 14.4961 38.4884C14.9957 38.8867 15.4201 39.3698 15.7498 39.9152C15.988 40.3822 16.1059 40.9005 16.0932 41.4238C16.0932 42.1742 15.9068 42.7449 15.5315 43.1545C15.3184 43.3643 15.0626 43.5265 14.7812 43.6304C14.4998 43.7343 14.1994 43.7774 13.8999 43.7569C13.6049 43.7782 13.3089 43.7356 13.0322 43.6321C12.7555 43.5285 12.5048 43.3664 12.2975 43.1571Z" fill="white"/>
<path d="M26.0986 43.1517C25.6929 42.6787 25.4886 42.0675 25.5289 41.4475V36.6229C25.4886 36.003 25.6929 35.3918 26.0986 34.9187C26.313 34.7092 26.5698 34.5472 26.852 34.4433C27.1342 34.3395 27.4353 34.2962 27.7355 34.3163C28.0358 34.2962 28.3369 34.3395 28.6191 34.4433C28.9013 34.5472 29.1581 34.7092 29.3725 34.9187C29.777 35.3925 29.9811 36.0032 29.9422 36.6229V41.4475C29.9811 42.0673 29.777 42.678 29.3725 43.1517C29.1581 43.3612 28.9013 43.5233 28.6191 43.6271C28.3369 43.7309 28.0358 43.7742 27.7355 43.7541C27.4353 43.7742 27.1342 43.7309 26.852 43.6271C26.5698 43.5233 26.313 43.3612 26.0986 43.1517ZM28.4942 41.54V36.5199C28.4942 35.9175 28.228 35.6163 27.7409 35.6163C27.2538 35.6163 26.9876 35.9175 26.9876 36.5199V41.54C26.9876 42.1424 27.2387 42.4436 27.7409 42.4436C28.236 42.4436 28.4808 42.1424 28.4808 41.54H28.4942Z" fill="white"/>
<path d="M39.6338 34.4458H41.0871V42.3115H43.4827V43.6326H39.6338V34.4458Z" fill="white"/>
<path d="M52.8921 34.4458H55.112C55.8325 34.4458 56.3737 34.6387 56.7357 35.0244C57.0977 35.4075 57.268 35.973 57.268 36.7154V41.355C57.268 42.0975 57.087 42.6629 56.7357 43.046C56.3843 43.4291 55.8333 43.622 55.112 43.622H52.8921V34.4458ZM55.0987 42.3115C55.1998 42.318 55.3012 42.3028 55.3959 42.2667C55.4905 42.2307 55.5762 42.1748 55.647 42.1028C55.7924 41.9063 55.8605 41.6639 55.8387 41.4211V36.6494C55.8605 36.4066 55.7924 36.1642 55.647 35.9677C55.5762 35.8957 55.4905 35.8398 55.3959 35.8037C55.3012 35.7677 55.1998 35.7524 55.0987 35.759H54.3587V42.3115H55.0987Z" fill="white"/>
</svg>
